<svg width="672" height="179" viewBox="0 0 672 179" fill="none" xmlns="http://www.w3.org/2000/svg">
<path d="M114.38 8.85013C105.981 3.07613 95.0209 0.182129 81.4999 0.182129H29.1539C25.0089 0.182129 22.7189 2.25512 22.2839 6.39612L1.0189 139.876C0.797896 141.187 1.12589 142.386 1.99989 143.476C2.86889 144.569 3.96189 145.112 5.27089 145.112H30.1349C34.4959 145.112 36.8929 143.044 37.3329 138.896L43.2209 102.911C43.4359 101.167 44.2029 99.7491 45.5119 98.6571C46.8199 97.5671 48.4559 96.8531 50.4189 96.5271C52.3819 96.2031 54.2329 96.0401 55.9809 96.0401C57.7239 96.0401 59.7949 96.1501 62.1979 96.3671C64.5949 96.5851 66.1229 96.6911 66.7779 96.6911C85.5339 96.6911 100.256 91.4061 110.945 80.8251C121.629 70.2481 126.977 55.5811 126.977 36.8211C126.977 23.9531 122.775 14.6291 114.38 8.84612V8.85013ZM87.3899 48.9301C86.2959 56.5651 83.4639 61.5791 78.8839 63.9791C74.3029 66.3821 67.7599 67.5761 59.2549 67.5761L48.4579 67.9041L54.0209 32.8971C54.4549 30.5001 55.8719 29.3001 58.2729 29.3001H64.4909C73.2109 29.3001 79.5399 30.5571 83.4659 33.0611C87.3899 35.5711 88.6989 40.8631 87.3899 48.9301Z" fill="#003087"/>
<path d="M666.79 0.180176H642.582C640.177 0.180176 638.761 1.38019 638.329 3.77919L617.062 139.879L616.734 140.533C616.734 141.629 617.171 142.66 618.045 143.642C618.913 144.621 620.008 145.113 621.316 145.113H642.911C647.049 145.113 649.34 143.045 649.782 138.898L671.047 5.08818V4.76318C671.045 1.71018 669.623 0.183182 666.79 0.183182V0.180176Z" fill="#009CDE"/>
<path d="M374.31 52.8598C374.31 51.7718 373.872 50.7338 373.004 49.7538C372.129 48.7728 371.147 48.2798 370.059 48.2798H344.868C342.464 48.2798 340.502 49.3758 338.978 51.5508L304.299 102.591L289.905 53.5158C288.809 50.0278 286.412 48.2798 282.707 48.2798H258.167C257.074 48.2798 256.092 48.7718 255.225 49.7538C254.35 50.7338 253.916 51.7728 253.916 52.8598C253.916 53.2998 256.043 59.7308 260.295 72.1628C264.547 84.5968 269.128 98.0108 274.036 112.407C278.944 126.801 281.504 134.438 281.724 135.305C263.838 159.735 254.898 172.823 254.898 174.565C254.898 177.403 256.315 178.819 259.151 178.819H284.342C286.741 178.819 288.703 177.731 290.232 175.548L373.659 55.1478C374.092 54.7148 374.31 53.9548 374.31 52.8588V52.8598Z" fill="#003087"/>
<path d="M608.89 48.2798H584.025C580.969 48.2798 579.121 51.8788 578.466 59.0768C572.789 50.3568 562.435 45.9888 547.383 45.9888C531.679 45.9888 518.318 51.8788 507.306 63.6568C496.29 75.4358 490.785 89.2878 490.785 105.208C490.785 118.079 494.546 128.329 502.07 135.96C509.594 143.599 519.681 147.411 532.336 147.411C538.659 147.411 545.093 146.1 551.636 143.485C558.18 140.868 563.301 137.38 567.015 133.016C567.015 133.235 566.793 134.214 566.361 135.958C565.921 137.706 565.706 139.018 565.706 139.884C565.706 143.378 567.12 145.118 569.96 145.118H592.536C596.674 145.118 599.077 143.05 599.729 138.902L613.144 53.5128C613.359 52.2038 613.033 51.0058 612.163 49.9138C611.287 48.8268 610.199 48.2798 608.89 48.2798V48.2798ZM566.196 112.732C560.634 118.185 553.927 120.911 546.076 120.911C539.748 120.911 534.627 119.169 530.699 115.677C526.771 112.194 524.808 107.395 524.808 101.281C524.808 93.2168 527.535 86.3968 532.989 80.8348C538.435 75.2728 545.203 72.4918 553.273 72.4918C559.375 72.4918 564.447 74.2918 568.485 77.8888C572.517 81.4878 574.54 86.4518 574.54 92.7768C574.539 100.628 571.757 107.282 566.196 112.732Z" fill="#009CDE"/>
<path d="M237.23 48.2798H212.366C209.308 48.2798 207.458 51.8788 206.803 59.0768C200.914 50.3568 190.553 45.9888 175.722 45.9888C160.018 45.9888 146.657 51.8788 135.644 63.6568C124.628 75.4358 119.123 89.2878 119.123 105.208C119.123 118.079 122.886 128.329 130.411 135.96C137.936 143.599 148.021 147.411 160.673 147.411C166.777 147.411 173.106 146.1 179.648 143.485C186.191 140.868 191.426 137.38 195.352 133.016C194.477 135.632 194.043 137.923 194.043 139.884C194.043 143.378 195.46 145.118 198.296 145.118H220.87C225.011 145.118 227.413 143.05 228.068 138.902L241.481 53.5128C241.696 52.2038 241.369 51.0058 240.5 49.9138C239.627 48.8268 238.538 48.2798 237.23 48.2798V48.2798ZM194.535 112.894C188.972 118.245 182.153 120.911 174.088 120.911C167.759 120.911 162.688 119.169 158.874 115.677C155.055 112.194 153.148 107.395 153.148 101.281C153.148 93.2168 155.873 86.3968 161.328 80.8348C166.777 75.2728 173.539 72.4918 181.612 72.4918C187.716 72.4918 192.787 74.2918 196.826 77.8898C200.858 81.4888 202.878 86.4528 202.878 92.7778C202.878 100.847 200.097 107.556 194.535 112.894V112.894Z" fill="#003087"/>
<path d="M486.04 8.85013C477.642 3.07613 466.684 0.182129 453.161 0.182129H401.141C396.777 0.182129 394.376 2.25512 393.944 6.39612L372.678 139.876C372.457 141.188 372.784 142.387 373.659 143.477C374.524 144.569 375.621 145.112 376.93 145.112H403.756C406.373 145.112 408.117 143.696 408.991 140.86L414.881 102.911C415.097 101.167 415.861 99.7491 417.171 98.6571C418.48 97.5671 420.114 96.8541 422.079 96.5271C424.041 96.2031 425.891 96.0401 427.641 96.0401C429.384 96.0401 431.455 96.1501 433.855 96.3671C436.254 96.5851 437.786 96.6911 438.435 96.6911C457.195 96.6911 471.914 91.4061 482.603 80.8251C493.291 70.2481 498.634 55.5811 498.634 36.8211C498.636 23.9541 494.435 14.6301 486.04 8.84712V8.85013ZM452.506 62.6701C447.707 65.9411 440.509 67.5761 430.914 67.5761L420.444 67.9041L426.006 32.8971C426.438 30.5001 427.855 29.3001 430.258 29.3001H436.145C440.943 29.3001 444.759 29.5181 447.599 29.9531C450.43 30.3931 453.161 31.7521 455.778 34.0421C458.396 36.3331 459.704 39.6601 459.704 44.0221C459.704 53.1821 457.302 59.3971 452.506 62.6701V62.6701Z" fill="#009CDE"/>
</svg>
